# xmcd
#
# Track frame offsets:
#	150
#	14526
#	31217
#	46652
#	61327
#	75167
#	90919
#	105440
#	120100
#	134763
#	149459
#	164245
#	179443
#	194899
#	207356
#	220368
#	236196
#	248915
#	264150
#	279911
#
# Disc length: 3914 seconds
#
# Revision: 0
# Processed by: cddbd v1.5.2PL0 Copyright (c) Steve Scherf et al.
# Submitted via: EasyCDDAExtractor 16.0.6.1
#
DISCID=1c0f4814
DTITLE=Συλλογικός δίσκος - Χρυσή δισκοθήκη 1950
DYEAR=2002
DGENRE=Ποικίλη
TTITLE0=Τσαουσάκης Πρόδρομος-Ντάλια Ρένα-Τσιτσάνης Β. - Όμορφη Θεσσαλονίκη [Βα
TTITLE0=σίλης Τσιιτσάνης]
TTITLE1=Τζουανάκος Σταύρος-Νίνου Μαρίκα - Σε τούτο το παλιόσπιτο [Βασίλης Τσιτ
TTITLE1=σάνης]
TTITLE2=Νίνου Μαρίκα-Σαλασίδης-Γιαννόπουλος - Η Σεράχ [Βασίλης Τσιτσάνης]
TTITLE3=Μοσχονάς Οδυσσέας-Νίνου Μαρίκα-Τσιτσάνης Β. - Καΐκι μου Άη Νικόλα [Βασ
TTITLE3=ίλης Τσιτσάνης]
TTITLE4=Τσαουσάκης Πρόδρομος-Τσιτσάνης Βασίλης - Γύρνα μόνος μέσ' στη νύχτα [Β
TTITLE4=ασίλης Τσιτσάνης]
TTITLE5=Μπέλλου Σωτηρία - Σαν απόκληρος γυρίζω [Βασίλης Τσιτσάνης]
TTITLE6=Τσαουσάκης Πρόδρομος-Ντάλια Ρένα - Στρώσε μου να κοιμηθώ [Βασίλης Τσιτ
TTITLE6=σάνης]
TTITLE7=Νίνου Μαρίκα-Τσαουσάκης Πρόδρομος - Τρικαλινή παληά μου αγάπη [Βασίλης
TTITLE7=Τσιτσάνης]
TTITLE8=Τσαουσάκης Πρόδρομος-Ντάλια Ρένα - Μη μού ξαναφύγεις πια [Βασίλης Τσιτ
TTITLE8=σάνης]
TTITLE9=Μπίνης Τάκης-Χρυσάφη Ά.-Χιώτης Μ. - Τα πεταλάκια (Η σούστα)[Μανώλης Χι
TTITLE9=ώτης-Νίκος Ρούτσος]
TTITLE10=Τσαουσάκης Πρόδρομος-Γεωργακοπούλου Ιωάννα - Πέφτουν της βροχής οι στ
TTITLE10=άλες [Βασίλης Τσιτσάνης]
TTITLE11=Βέμπο Σοφία - Ταμπακιέρα [Ιωσ. Ριτσιάρδης-Μίμ. Τραϊφόρος-Χ.Γιαννακόπο
TTITLE11=υλοος]
TTITLE12=Γενοβέζου Ζοζεφίνα-Καρανικόλας Γ.-Φακίδης Νάσος - Ζαχαρίας και Αντζου
TTITLE12=λίνα [Νάσος Φακίδης]
TTITLE13=Πολυμέρης Φώτης-Σάμης Πάνος - Ένας χαρούμενος αλήτης [Γιώργος Μαλλίδη
TTITLE13=ς-Κώστας Κοφινιώτης]
TTITLE14=Μακούλης Τζίμης - Βίρα τις άγκυρες [Γιώργος Μουζάκης-Αλέξ. Αγγελόπουλ
TTITLE14=ος]
TTITLE15=Μαρούδας Τώνης - Αντίο Πάμπα αντίο [F. Cararo-Πωλ Μενεστρέλ]
TTITLE16=Γιούλη Σμαρούλα - Είσαι καράτια 24 [Γιώργος Μοουζάκης-Τ. Καραδήμας]
TTITLE17=Μαρούδας Τώνης-Τρίο Αρμονία - Άϊ άϊ άϊ Μαρία [Paul Misraki-Πωλ Μενεστ
TTITLE17=ρέλ]
TTITLE18=Νικολαΐδου Κούλα-Τρίο Κιτάρα - Η Ράσπα από το Μεξικό [Consuelo Donato
TTITLE18=Πωλ Μενεστρέλ]
TTITLE19=Γιούλη Σμαρούλα-Δημάκης Γ.-Κεφάλας Γ. - Θέλω να χορεύω [Γιώργος Μουζά
TTITLE19=κης-Γιώργος Οικονομίδης]
EXTD=
EXTT0=
EXTT1=
EXTT2=
EXTT3=
EXTT4=
EXTT5=
EXTT6=
EXTT7=
EXTT8=
EXTT9=
EXTT10=
EXTT11=
EXTT12=
EXTT13=
EXTT14=
EXTT15=
EXTT16=
EXTT17=
EXTT18=
EXTT19=
PLAYORDER=
